<svg xmlns="http://www.w3.org/2000/svg" xmlns:xlink="http://www.w3.org/1999/xlink" style="background:#6d6d6d" width="600" height="600">
  <path fill="#111111" d="M0 0h600v600H0z" paint-order="markers fill stroke"/>
  <defs>
    <radialGradient id="b" cx="163.05" cy="632.7" r="65.66" fx="163.05" fy="632.7" gradientTransform="matrix(1.87904 0 0 .53219 20.76 43.42)" gradientUnits="userSpaceOnUse">
      <stop offset="0%" stop-color="#E1B5A4"/>
      <stop offset="100%" stop-color="#BE937F"/>
    </radialGradient>
    <radialGradient id="c" cx="124.73" cy="815.8" r="52.69" fx="124.73" fy="815.8" gradientTransform="matrix(2.44392 0 0 .40918 20.76 43.42)" gradientUnits="userSpaceOnUse">
      <stop offset="0%" stop-color="#E8C7B2"/>
      <stop offset="100%" stop-color="#BD9381"/>
    </radialGradient>
    <linearGradient id="a" x1="14.55%" x2="23.65%" y1="50%" y2="180.71%">
      <stop offset="0%" stop-color="#9C806C"/>
      <stop offset="100%" stop-color="#4A403A"/>
    </linearGradient>
    <linearGradient id="d" x1="132.89" x2="135.25" y1="379.53" y2="413.45" gradientTransform="matrix(1.79685 0 0 .55653 20.76 43.42)" gradientUnits="userSpaceOnUse" xlink:href="#a"/>
    <linearGradient id="e" x1="210.91" x2="213.45" y1="317.83" y2="354.33" gradientTransform="matrix(1.56635 0 0 .63843 20.76 43.42)" gradientUnits="userSpaceOnUse" xlink:href="#a"/>
  </defs>
  <g fill-rule="evenodd">
    <path fill="#d5af9d" d="M417.47 397.01L305.08 468.8l-107.27-58.02 8.16 88.71s-6.85 12.84-11.4 23.32c-3.5 8.03-120.24 45.84-188.66 77.2h591.75c-66.32-34.67-175.22-73.94-177-85.1-2.26-14.1-7.9-56.39-7.9-56.39z"/>
    <path fill="#e3bcab" d="M191.94 106.3c-23.51 29.02-22.26 87.84-25.56 129.98-3.29 42.13-12 48.1-12 48.1s-2.76-12.19-7.04-21.13c-4.28-8.93-4.62-6.56-6.24-6.92-3.79-.86-9.21 1.21-8.42 18.95.8 17.73 16.74 70.27 16.74 70.27s2.1 18.63 7.84 22.37c5.75 3.74 9.12 0 9.12 0s13.11 36.63 19.55 49.69c6.43 13.06 61.66 73.41 84.4 77.59 22.76 4.18 35.36 6.65 68.1 3.33 32.74-3.33 80.69-68.91 86.47-84.18 5.79-15.26 18.66-68.8 18.66-68.8s.1 4.18 7.46 2.04c7.36-2.14 8.18-37.51 8.18-37.51s10.4-65.28 5.08-73.8c-5.32-8.53-10.5-5.1-16.21 4.06-5.7 9.16-7 22.91-7 22.91l-12.9-73.09s3.73-69.49-32.07-97.34c-35.8-27.86-41.36-12.2-95.8-8.6-54.44 3.6-69.48-25.9-108.36 22.09z"/>
    <path fill="#e9acac" fill-opacity=".21" d="M233.28 317.65c12.81 3.92 31.9-7.73 21.69 12.21-10.21 19.94-39.08 35.57-39.08 35.57s-22.4 3.72-31.17-12.33c-3.52-6.46-11.89-32.52 0-44.13 11.9-11.6 40.9 6.34 48.56 8.68zM375.15 302.33c-12.6 3.93-31.87-7.73-21.09 12.21 10.44 19.94 38.19 35.57 38.19 35.57s21.18 3.72 29.93-12.33c3.59-6.46 12.66-32.52 1.26-44.13-11.64-11.6-40.73 6.34-48.3 8.68z" opacity=".49"/>
    <path fill="#302117" fill-opacity=".77" d="M272.23 233.67c1.79 2.57 3.08 10.89-2.04 10.89s-53.57-3.52-53.57-3.52l-26.57 8.06 10.75-19.16 11.96-6.54s57.67 7.7 59.47 10.27zM331.72 221s-5.67 12.86 0 13.5c5.68.65 51.2-6.32 51.2-6.32l22.85 4.83-8.21-15.4-13.3-9.53z" opacity=".39"/>
    <path fill="#494039" d="M219.46 41.65c-9.97 4.4-52.9 28.83-64.82 61.12-4.82 13.04-12.22 30.16-12.4 58.58-.2 28.42 2.76 95.96 2.76 95.96s-.38.95 4.09 12.18c4.46 11.24 4.97 19.3 5.55 19.46.57.16 2.37-5.87 5.75-12.12 3.39-6.25 9.17-82.09 9.17-82.09s.76-55.18 15.94-76.94c8.7-12.45 25.57-25.03 44.03-28.63 18.46-3.6 33.45 2.47 65.17 4.74s57.62-17.71 87.68-3.53c14.5 6.84 29.08 25.3 36.36 48.87 7.27 23.56 7.77 55.49 7.77 55.49s13.39 76.83 14.4 72.4c.53-2.26 2-14.98 5.98-23.22 3.97-8.23 7.51-10.94 7.51-12.91 0-4.03-10.2-109.87-13.48-128.24-3.29-18.38-40.48-57.72-58.54-65.7-18.06-7.99-59.72-11.5-87.68-11.92-27.96-.43-67.4 13.03-75.24 16.5z"/>
    <path fill="#4a403a" fill-opacity=".09" d="M255.5 337.34c3.7-1.51 82.9-6.55 97.2 1.85 6.11 3.58 17.03 21.1 23.26 28.67 6.22 7.58 20.32 10.38 11.26 10.38s-36.84-10.41-42.08-10.38c-5.25.04-38.43 7.87-38.43 7.87s-21.68-7.45-36.72-4.88c-15.03 2.57-32.34 10.64-40.96 7.4-16.55-6.25 7.65-6.93 7.65-6.93s12.8-31.53 18.82-33.98z" opacity=".14"/>
    <path fill="#d8d8d8" fill-opacity=".22" d="M253.66 341.22c7.1-4.53 15.37 1.44 23.81 3.74 8.45 2.3 9.33 9.51 20.22 8.28 10.89-1.24 15.58-7.52 21.23-8.28 14.46-1.92 8.98-3.74 22.64-3.74s32.95 35.44 32.95 35.44l-22.25 10.3-38.8-10.7-15.77 6.02-16.31-4.76-41.53 9.44-14.05-9.44s20.76-31.78 27.86-36.3z" opacity=".14"/>
    <path fill="#eec5ae" d="M286.91 242.3s1.81 21.24 1.26 33.29a447.97 447.97 0 0 1-2.38 28.39s-6.1 4.78-11.73 7.72c-5.62 2.93-9.16 7.54-9.8 8.9-2.97 6.33-1.05 15.7 2.97 17.55 4.02 1.85 12.8 3.38 15 4.48 5.87 2.93 14.08 8.13 22.98 8.13s14.05-8.13 22.98-8.13c3.29 0 9.08.37 13.35-2.97 4.27-3.34 7.93-8.16 5.26-15.17-1.46-3.83-5.79-11.1-9.84-12.8-4.06-1.7-14.4-7.71-14.4-7.71s-4.06-19.72-4.06-28.4c0-8.66 1.79-35.13 1.79-35.13l7.9-18.33-48.5 3.12z" opacity=".7"/>
    <path fill="#756451" fill-opacity=".29" d="M259.37 325.63l-1.31-3.94-29.71 62.5zM349.63 322.98l.42-3.84 38.88 46.97z" opacity=".05"/>
    <path fill="#e8d7c6" fill-opacity=".72" d="M255.96 307.63c-6.67-10.9-20.53 4.25-35.04 12.55-14.51 8.31-15.83 4.85-17.86 18.17-2.03 13.33 9.02 18.4 19.47 12.54 10.44-5.86 40.1-32.36 33.43-43.26z" opacity=".25"/>
    <path fill="#e8d7c6" fill-opacity=".72" d="M346.58 287.85c7-2.07 14.72 1.4 24.06 4.65 9.34 3.24 16.17 4.11 22.6 8.14 13.06 8.15 10.85 33.3 0 36.52-10.83 3.2-31.84-14.25-40.56-24.5-8.71-10.26-18.55-21.12-6.1-24.8z" opacity=".2"/>
    <path fill="#e8d7c6" fill-opacity=".5" d="M280.65 460.9c10.26-7.7 41.37-6.03 51.38 0 10 6.03-12.37 23.51-12.37 23.51h-24.71s-24.57-15.82-14.3-23.5z" opacity=".3"/>
    <path fill="#7c6392" fill-opacity=".29" d="M271.75 420.92s17.78 10.55 37.06 10.31C328.1 431 347.74 420 347.74 420s-28.3 22.49-38.93 22.49c-10.63 0-37.06-21.56-37.06-21.56z" opacity=".1"/>
    <path fill="#417505" fill-opacity=".16" d="M165.96 278.98c-1.61-3.27-6.55 5.89-6.55 10.66 0 4.77 2.31 57.06 2.31 57.06l11.95 42.84s-1.01-10.8-1.17-25.28c-.16-14.49.66-27.21 0-39.59-1.44-27.02-4.94-42.42-6.54-45.7zM437.12 248.93s-6.43 12.92-9.2 18.18c-1.36 2.61.75 20.33 3.54 37.33s5.66 31.71 5.66 31.71l-1.51 31.13s7.44-17.46 8.37-30.1c.93-12.62.08-27.96 0-37.45-.14-17.11-1.2-21.15-2.72-29.93a639.7 639.7 0 0 0-4.14-20.87z" opacity=".2"/>
    <path fill="#d1a292" fill-opacity=".71" stroke="url(#b)" d="M283.84 376.7c1.04 1.7 10.12 10.9 15.22 14.88 2.92 2.28 9.17 6.61 13.04 7.93 3.87 1.33 11.05 0 16.21 0 4.1 0 8.59 1.79 14.72 0 2.56-.74 10.2-5.67 13.8-7.93 3.61-2.26 16.64-16.34 13.04-14.87-3.6 1.46-22.21 7.6-29.6 7.6a76.72 76.72 0 0 0-13.79 1.33s-6.9-.67-16.18-1.32c-9.27-.65-27.5-9.3-26.46-7.61z" opacity=".45" transform="matrix(1.2766 0 0 1.2766 -109.65 -92.46)"/>
    <path fill="#d1a68d" fill-opacity=".82" stroke="url(#c)" d="M284.48 376.47c-1.8-1.2 6.78-2.06 11.55-3.5 4.76-1.44 12-2.55 15.2-2.55 3.21 0 10.23 2.55 15.14 2.55 4.9 0 10.53-1.89 13.36-1.89 2.82 0 15.58 1.89 15.58 1.89s18.03 1.79 14.86 3.5c-3.16 1.7-23.95 7.09-27.6 7.43-3.65.34-12.72-.1-16.2 0-6.15.16-13.65-.1-15.14 0-1.02.06-24.96-6.23-26.75-7.43z" opacity=".4" transform="matrix(1.2766 0 0 1.2766 -109.65 -92.46)"/>
    <path fill="#e8d7c6" fill-opacity=".15" d="M330.79 162.35c-11.75 13.21-20.84 20.76-12.64 25.11 8.2 4.35 25.8 8.83 20.35 14.5-5.45 5.66-23.7 18.26-51.72 15.85-28.02-2.42-59.19-.36-48.05-18.54 11.15-18.17 26.77-10.75 12.92-25.64-13.84-14.88-27.2-14.1-22.24-32.18 4.96-18.1 69-29.66 95.2-18.1 26.2 11.57 9.39 35.39 6.18 39z" opacity=".5"/>
    <path fill="#b09cc1" fill-opacity=".28" d="M422.65 321.65c-18.15 25.06-48.77 22.38-48.77 22.38s14.43 23.5 23.35 25.22c8.93 1.71 4.83 10.56 4.45 19.86-.37 9.3-4.98 27.64 1.2 21.09 6.2-6.55 10.43-21.23 13.46-29.54 3.03-8.3 24.45-84.07 6.3-59.01zM190.82 355.66c-7.04-7.7-13.3-7.99-12.11 0 1.2 7.98 10.84 31.14 22.28 50.1a1097.6 1097.6 0 0 0 21.53 34.22l-22.62-57.27s-2.05-19.37-9.08-27.05z" opacity=".2"/>
    <path fill="#7c688d" fill-opacity=".09" d="M271.75 528.48c0 4.6 10.65 19.3 16.78 37.29 6.13 18 10.58 27.32 13.14 28.22 2.63.93 6.41-8.8 15.86-28.22 9.46-19.42 16.15-28.34 13.46-32.2-2.68-3.86-15.72.21-26.9 0-11.17-.2-32.34-9.68-32.34-5.09z" opacity=".32"/>
    <path fill="#d8d8d8" d="M304.27 554.07c7.7 3.23 10.35-1.5 8.58 3.79-1.77 5.29-9.98 7.9-13.45 4.62-3.47-3.29-5.43-11.32-4.39-13.55" opacity=".05"/>
    <path fill="#e8d7c6" d="M304.01 319.24c-11.77 4.76-13.74 11.46-10.33 17.02 3.41 5.55 8.86 6.57 10.33 6.85 1.47.3 8.54-5.05 9.75-6.85 1.2-1.8 6.9-7.12 3.2-11.7-5.35-6.6-12.95-5.32-12.95-5.32z" opacity=".28"/>
    <path fill="#e8d7c6" d="M298.6 315.39c-11.33 4.75-11.05 16.07-4.05 17.77 7.01 1.7 7.66 1.74 10.17 0 3.85-2.67 7-8.9 3.17-13.82-3.84-4.91-9.3-3.95-9.3-3.95zM296.01 239.16s.65 23.1 1.6 26.98c.94 3.88 5.15 3.55 6.54 0 1.39-3.55 2.15-23.1 1.35-26.98-.81-3.88-9.49 0-9.49 0z" opacity=".2"/>
    <path fill="#756451" fill-opacity=".29" d="M419 146.8s-3.74 5.97-8.5 14.54c-4.75 8.58-9.62 13.26-8.32 18.29 1.1 4.29 8.8 9.27 13.71 17 4.9 7.73 13.93 27.84 13.93 27.84s-7.15-38.13-8.33-51.24c-1.17-13.1-2.5-26.43-2.5-26.43z" opacity=".3"/>
    <path fill="#756451" fill-opacity=".27" d="M174.8 162.12s9.36 14.92 9.36 22.08c0 7.16-13.26 40.09-13.26 40.09s.6-23.87 1.37-36.12a476.89 476.89 0 0 1 2.54-26.05z" opacity=".35"/>
    <path fill="#d7bd9e" d="M320.77 297.44a72.16 72.16 0 0 1 4.58 12.67s-6.04 6.98-5.82 8.52c.21 1.54-3.1-9.7-3.1-9.7s1.16-18.27 4.34-11.5z" opacity=".2"/>
    <path fill="#345341" fill-opacity=".08" d="M183.74 127.73c-7-3.4 14.88-23.88 29.38-29.57 27.35-10.72 20.4-11.97 59-5.59 15.62 2.58 28.23 4.98 40.54 3.01 12.5-2 21.16-2.32 33.12-6.45 7.33-2.53 23.39-3.63 32.63 0 13.28 5.22 23.1 17.83 28.57 28.66 1.01 2 3.59 5.43 1.63 6.55-19.02 10.82-32.12-14.36-49.35-16.23-32.4-3.5-35.87 6.33-63.25 8.46-10.9.84-36.68-.57-44.58-1.91-8.06-1.38-25.87-10.87-36-6.82-16.81 6.72-28.74 21.31-31.69 19.89z" opacity=".18"/>
    <path fill="url(#d)" d="M296.52 254.27c2.02 1.87 4.05 6.14 2.05 7.35s-38.7-2.57-42.71-4.09c-4.02-1.52-4.7-10.11 1.47-10.11 6.19 0 37.16 4.99 39.19 6.85z" opacity=".25" transform="matrix(1.2766 0 0 1.2766 -109.65 -92.46)"/>
    <path fill="url(#e)" d="M346.72 245.93c-2.04 1.87-2.78 7.9-.77 9.11 2 1.21 32.53-3.3 36.56-4.81 4.01-1.52 9.36-12.81 3.18-12.81-6.19 0-36.94 6.65-38.97 8.51z" opacity=".25" transform="matrix(1.2766 0 0 1.2766 -109.65 -92.46)"/>
    <path fill="#6b4772" fill-opacity=".28" d="M224.52 461.06s39.57 44.24 88.32 44.24c48.74 0 88.32-55.95 88.32-55.95s-49.2 50.64-88.32 50.96c-39.13.32-88.32-39.25-88.32-39.25z" opacity=".18"/>
    <path fill="#525f43" fill-opacity=".1" d="M179.84 355.75s24.76 13.93 46.04 9.93c21.3-4 27.22-34.37 31.99-35.54 2.85-.7-1.1 5.6-4.2 16.15-3.1 10.56-6.67 14.98-10.34 19.4-9.1 10.94-14.27 8.12-19.68 9.25-6.41 1.35-17.83 1.56-26-3.8-8.15-5.35-17.81-15.4-17.81-15.4zM431.14 358.48c-3 0-20.75 14.04-42.6 11.13-21.84-2.9-30.54-34.21-35.45-35.13-2.93-.55 1.8 10.17 5.53 20.55 3.72 10.4 21.95 19.3 27.5 20.15 6.6 1.01 20.97 2.94 28.97-2.82" opacity=".16"/>
    <path fill="#362019" d="M273.6 339.12c-3.23-1.32-2-2.42-.38-2.82 1.6-.4 5.14 1.25 7.44 2.82 2.3 1.56 15.2 7.78 13.61 8.18-.94.23-9.85-4.84-13.61-6.3-3.77-1.46-5.38-1.2-7.06-1.88zM316.46 346.27c.27-.36 5.97-4.57 7.06-5.2 1.08-.62 6.57-2.51 7.87-2.51 1.75 0 3.4.01 3.95 1.2.16.36.54 2.08-.34 2.3-.5.13-2.76.46-4.25.36-1.49-.1-3.9.03-5.23.31-1.3.29-1.76.65-3.82 1.3-2.06.67-5.4 2.44-5.24 2.24z" opacity=".08"/>
    <path fill="#615164" d="M455.9 264.36c-1.28-1.62-6.5 15.28-9 23.36-.83 2.68.64 6.97 1.1 11.42.48 4.46 2.08 18.76 2.08 18.76s.18-15.2 1.17-24.72c.98-9.52 5.94-27.21 4.66-28.82z" opacity=".1"/>
    <path fill="#524555" d="M143.38 288.7c4.14-2.62 10.88 20.97 10.88 20.97s1 25.72 0 27.02c-1 1.3-4.13-21.63-4.13-21.63s-2.75-12.28-4.22-15.33c-1.46-3.04-4.3-9.9-2.53-11.02z" opacity=".1"/>
    <path fill="#d6b7b7" fill-opacity=".2" d="M207.92 449.35s24.5 22.91 39.3 32.98c14.81 10.07 20.59 16.64 40.38 21.19 19.8 4.55 33.82 6.47 51.78 0 17.95-6.47 62.72-54.17 62.72-54.17s-38.7 57.43-56.71 66.96c-18.01 9.53-48.78 9.86-71.28-3.46-22.5-13.33-66.19-63.5-66.19-63.5z" opacity=".85"/>
    <path fill="#d8d8d8" fill-opacity=".36" d="M275.58 399.61h15.84c4.92 0 17.2 1.93 17.2 1.93s9.22-2.32 13.49-1.93c4.26.4 15.56 0 15.56 0s-12.04 7.78-27.93 7.78c-15.9 0-34.16-7.78-34.16-7.78z" opacity=".29"/>
    <path fill="#d8d8d8" d="M269.2 394.51l20.6 1.03s10.5 3.21 18.41 3.21c7.9 0 14.05-3.21 14.05-3.21l19.98-.48s-12.5-3.18-18.5-3.67c-6-.49-6.83 3.3-15.53 3.08-8.7-.2-6.18-3.85-16.4-3.84-10.23.01-22.6 3.88-22.6 3.88z" opacity=".07"/>
    <path fill="#d8d8d8" fill-opacity=".16" d="M295.24 365.1l-3.06 10.41 13.18 3.85 11.46-4.23-11.68 1.9-10.09-3.1.19-8.83z"/>
    <path fill="#d8d8d8" fill-opacity=".6" d="M335.93 257.61c.95.66 2.93-.67 5.5-1.5 2.59-.83 5.72 0 8.7 0 5.65 0 8.75 3 19.5 2 10.77-1 16.83-3.41 19.47-6.93 2.64-3.51-7.53-9.6-17.37-10.62-9.84-1-14.32-1.08-23.3 3.2-2.66 1.27-4.04 5.81-5.57 7.42-1.53 1.62-8.95 5.04-6.93 6.43z" opacity=".2"/>
    <path fill="#d8d8d8" fill-opacity=".6" d="M267.55 262.83c-.57.78-7.56-.42-11.26 0-3.7.43-20.67 3.7-20.67 3.7s-19.37 1.3-20.91-3.7c-1.54-5 1.17-8.01 10.86-11.16 9.68-3.15 21.2-3.18 23.66-2.1 2.13.94 7.93 4.45 10.52 6.91 1.47 1.4 4.16 2.3 5.89 3.64 1.72 1.34 2.48 1.94 1.91 2.71z" opacity=".25"/>
    <path fill="#846a59" fill-opacity=".82" d="M341.97 247.8s3.23-5.88 8.11-7.63c4.88-1.75 14.26-3.78 22.01-2.11 7.76 1.67 16.12 6.13 16.12 6.13l8.9 6.43s5.24-.06 7.73-.73c2.48-.67 14.93-4.5 14.61-3.83-.3.66-8.54 3.83-13.13 5.24-4.59 1.4-9.8.5-10.48 1.15-.68.66 3.2 1.34 7.59 2.44 4.38 1.1 12.33 1.8 12.48 2.18.27.67-12.32.21-18.8-1.41-3.99-1-7-2.52-7.95-4.36-.96-1.85.4-2.7 0-3.5-1.04-2.09-4.3-3.94-6.64-5.14-2.34-1.19-8.44-2.71-8.44-2.71s-11.67-1.26-18.44.22c-6.77 1.48-13.67 7.63-13.67 7.63z" opacity=".05"/>
    <path fill="#7f7493" fill-opacity=".19" d="M329.2 262.97s6.72 10.48 13.79 14.4c7.07 3.93 14.75 5.45 22.07 5.5 7.32.06 17.07-9.94 17.07-9.94s-28.43 0-34.5-1.54c-6.08-1.53-18.43-8.42-18.43-8.42z" opacity=".1"/>
    <path fill="#846a59" fill-opacity=".82" d="M273.21 257.59c.93-1.92-16.12-8.37-16.12-8.37s-10.72-1.57-14.74-1.57-14.16 1.33-19.16 2.9c-4.99 1.57-13.86 12.3-13.86 12.3s-3.71 3.33-5.93 4.13c-2.23.8-11.1-3.54-12.54-4.13-1.44-.6-6.8-6.91-5.98-6.23.41.34 2.28 4.87 5.98 7.55 3.7 2.68 9.31 3.55 8.77 4.2-1.1 1.31-22.69-.56-20.97 0 1.72.57 25.33 3.2 26.96 1.97 1.62-1.22 5.1-5.44 6.28-6.17 1.17-.73 3.85-.44 3.52-1.32-.91-2.43 0-5.26 0-5.26s2.26-2.82 7.77-5.2c5.52-2.37 17.25-4.79 23.28-3.6 6.03 1.18 7.93 1.79 9.55 2.46 3.6 1.49 3.83 1.1 8.07 2.82 4.24 1.72 8.65 4.49 9.12 3.52z" opacity=".05"/>
    <path fill="#7f7493" fill-opacity=".19" d="M268.58 266.8s-12.26 8.61-19.71 10.33c-7.46 1.73-28.18 1.27-28.18 1.27s4.01 6.65 16.8 6.65c12.8 0 23.37-4.03 27.73-6.65 4.36-2.63 3.36-11.6 3.36-11.6z" opacity=".1"/>
    <path fill="#214478" d="M203.83 502.21a.9.9 0 0 0-.42.14c-2.5 1.48-1.64-2.9-7.04 8.84-.86 1.88-45.67 16.1-45.67 16.1S61.64 558.84 0 584.5V600h600v-21.05c-57.82-22.83-136.55-49.8-150.02-54.06-20.29-6.4-20.14-4.22-23.16-7.25-3.02-3.03-1.18-3.21-2.47-4.5-1.29-1.3-4.2-1.95-4.2-1.95s-.31 5.05 1.29 7.74c1.6 2.7 5.9 4.62 2.91 8.36-3 3.73-11.62 19.8-55.5 28.36-43.89 8.57-63.28 8.4-105.96 2.22-42.68-6.18-61.12-21.87-66.52-30.58-5.4-8.71 3.19-10.85 5.4-13.38 2.08-2.38 3.9-11.75 2.06-11.7z"/>
    <path fill="#417505" fill-opacity=".17" d="M449.89 282.14c-3.02 5.91-.17 8.97-.17 8.97l1.74-6.33s1.44-8.55-1.57-2.64z" opacity=".51"/>
    <path fill="#5f6953" fill-opacity=".15" d="M148.86 306.01s1.4-4.4 2.93-.7c1.53 3.72 1.08 9.8 1.08 9.8z" opacity=".5"/>
  </g>
</svg>
