<svg xmlns="http://www.w3.org/2000/svg" width="60" height="60">
  <circle cx="30" cy="30" r="30" fill="#111" paint-order="markers fill stroke"/>
  <g fill="#eee">
    <path d="M16.2 13.5l-7.2.6v1.4h.8c1.6 0 2.3.3 2.3 1.1l-.4 1.8-4 13.4h3.5l1.7-6c1.5-5 4.8-9.9 6.6-9.9.4 0 .7.3.7 1 0 .8 0 .9.2 1.2.2.5.8.9 1.6.9 1.3 0 2.3-1.1 2.3-2.6 0-1.6-1.3-2.9-3-2.9-2.3 0-4 1.3-6 4.5z"/>
    <path d="M29.1 22.6c.6-.5.9-.7 1.4-.7.4 0 .7.2 1 .6.6 1 .9 1 1.5 1 1 0 1.5-.7 1.5-1.8 0-1-1-2-2.4-2s-2.4.6-4.4 2.2a7.5 7.5 0 0 0-3.4-.8c-4.3 0-8 3.1-8 6.7 0 1.9.7 3.2 2.4 4.1a6.3 6.3 0 0 0-3.6 1.2 3.6 3.6 0 0 0-1.3 2.7c0 1.4.7 2.2 2.3 2.9-1.7.3-2.4.6-3.2 1a3.8 3.8 0 0 0-2 3.4 4 4 0 0 0 1.5 2.8c1.6 1 3.4 1.5 6.6 1.5 4 0 6.2-.4 8-1.8a5.4 5.4 0 0 0 2.7-4.5 4 4 0 0 0-2-3.6 11.6 11.6 0 0 0-5.2-1 29.5 29.5 0 0 1-4.3-.4c-.9-.2-1.4-.7-1.4-1.3 0-1 .9-1.7 2.3-1.7.5 0 1 0 1.6.2 1.6.2 1.8.3 2.9.3a8 8 0 0 0 5.2-1.7 6.8 6.8 0 0 0 2.5-5c0-1.7-.7-3.2-2.2-4.3zm-4.5 0c2 0 3.3 1.3 3.3 3.1s-.7 3.9-1.7 5.1a4 4 0 0 1-2.9 1.3c-2.1 0-3.5-1.3-3.5-3.5 0-3.6 2-6 4.7-6zm-4.8 16.8c1.8 0 4.5.4 5.5.8.9.4 1.4 1 1.4 2 0 2.3-2.5 3.6-7 3.6-3.7 0-5.5-1-5.5-3 0-2.2 2-3.4 5.6-3.4z"/>
    <path d="M48 26c-1.1 2.4-2.1 3.6-3.5 3.6-.5 0-1.5-.3-2.5-.7-2.5-.8-2.9-1-4-1-.5 0-1 0-2 .4 1-1.1 1.8-1.8 4.8-3.5a23.2 23.2 0 0 0 6.6-5.1c1.8-2 3-4.3 3-5.3 0-.5-.3-.9-.9-.9-.4 0-.8.3-.8.9-.4.9-.6 1-1.1 1a7.1 7.1 0 0 1-2.9-.8c-1.8-1-2.4-1.1-3.3-1.1-2.5 0-4.5 1.8-6.4 5.4l1.2.7c1.3-2.2 2.3-3.1 3.3-3.1l2.4.5c2.1.8 2.4.9 3.5.9a8 8 0 0 0 2-.4 12.1 12.1 0 0 1-2.9 2.3 34 34 0 0 0-8.9 6.7c-1.8 2-2.7 3.9-2.7 5 0 .7.3 1 .8 1 .8 0 1.3-.7 1.3-1.9 0-.6 0-.6.4-.6s.4 0 2.9 1.2a11 11 0 0 0 4.6 1.3c2.7 0 5.2-2.4 6.4-6z"/>
  </g>
  <path d="M40.5 44.1c-1.4 1.5-2.6 2.2-3.8 2.2-1.5 0-2.4-1.1-2.4-2.7v-.8c3-.7 3.4-.9 4.5-1.3 2-1 3-2.2 3-3.6 0-1.5-1.2-2.7-3-2.7-3.5 0-7 3.8-7 7.9 0 2.6 1.8 4.3 4.4 4.3 2 0 3.6-.9 5-2.6zm-6.1-2.3c.6-3.4 2.1-5.5 4-5.5.8 0 1.3.6 1.3 1.4 0 1.4-.9 2.6-2.7 3.4l-2.6.7zm17 2.3c-1.5 1.5-2.6 2.2-4 2.2s-2.3-1.1-2.3-2.7v-.8c3-.7 3.5-.9 4.5-1.3 2-1 3-2.2 3-3.6 0-1.5-1.2-2.7-2.9-2.7-3.6 0-7 3.8-7 7.9 0 2.6 1.7 4.3 4.3 4.3 2 0 3.6-.9 5-2.6zm-6.1-2.3c.5-3.4 2-5.5 3.9-5.5.9 0 1.3.6 1.3 1.4 0 1.4-.9 2.6-2.6 3.4l-2.7.7z" fill="#aaa"/>
</svg>
